<svg
	 viewBox="0 0 1000 1000"  >
	 <path style="fill:#ffffff;stroke:#000000;" d="M237 620 C237 620 237 120 237 120  " />
	 <path style="fill:#ffffff;stroke:#000000;" d="M237 120 C237 35 226 24 143 19  " />
	 <path style="fill:#ffffff;stroke:#000000;" d="M143 19 C143 19 143 0 143 0  " />
	 <path style="fill:#ffffff;stroke:#000000;" d="M143 0 C143 0 435 0 435 0  " />
	 <path style="fill:#ffffff;stroke:#000000;" d="M435 0 C435 0 435 19 435 19  " />
	 <path style="fill:#ffffff;stroke:#000000;" d="M435 19 C353 23 339 36 339 109  " />
	 <path style="fill:#ffffff;stroke:#000000;" d="M339 109 C339 108 339 620 339 620  " />
	 <path style="fill:#ffffff;stroke:#000000;" d="M339 620 C339 620 393 620 393 620  " />
	 <path style="fill:#ffffff;stroke:#000000;" d="M393 620 C507 620 529 602 552 492  " />
	 <path style="fill:#ffffff;stroke:#000000;" d="M552 492 C552 492 576 492 576 492  " />
	 <path style="fill:#ffffff;stroke:#000000;" d="M576 492 C576 492 570 662 570 662  " />
	 <path style="fill:#ffffff;stroke:#000000;" d="M570 662 C570 662 6 662 6 662  " />
	 <path style="fill:#ffffff;stroke:#000000;" d="M6 662 C6 662 0 492 24 492  " />
	 <path style="fill:#ffffff;stroke:#000000;" d="M0 492 C0 492 24 492 24 492  " />
	 <path style="fill:#ffffff;stroke:#000000;" d="M24 492 C48 602 71 620 183 620  " />
	 <path style="fill:#ffffff;stroke:#000000;" d="M183 620 C183 620 237 620 237 620  " />
</svg>